:SAMPLES-PER-SECOND 30
:FULLY-SPECIFIED
:DEGREES
223
root  48.028 39.1238 6.27602 -5.60686 -52.7452 8.67824
RightUpLeg  6.67055 5.56175 -0.954231
RightLeg  17.5255 12.7594 2.65961
RightFoot  -19.2195 -1.06306 -13.4744
RightToes  -4.65663e-010 0 -3.6325e-017
Spine  4.80108 1.85316 6.86387
Spine1  6.42469 4.44135 -9.69493
HEad  -12.8178 -9.25093 4.43562
LeftShoulder1  8.47128 -11.7426 -48.4977
LeftArm  -10.0134 28.6922 -31.506
LeftForeArm  26.8979 -14.6892 -4.3779
LeftHand  -0.244104 0.0205437 5.32207
RightShoulder  5.88806 9.2619 39.9869
RightArm  13.1766 3.49738 38.0142
RightForeArm  9.02146 41.7286 9.40601
RightHand  -0.47265 -1.67271 -14.624
LeftUpLeg  -21.0045 5.03011 5.61229
LeftLeg  7.5758 -0.645203 -1.26304
LeftFoot  -2.27874 0.658219 -8.12863
LeftToes  -7.27628e-011 -1.6005e-012 -1.37987e-011
224
root  47.4846 38.9348 7.61349 -6.11992 -55.7752 8.99321
RightUpLeg  7.64277 12.1739 -0.913621
RightLeg  19.5708 8.25556 2.78434
RightFoot  -19.7256 -1.00514 -11.8861
RightToes  -4.65663e-010 0 -3.6325e-017
Spine  4.58434 1.9983 5.27521
Spine1  6.71791 4.28488 -8.48564
HEad  -13.2679 -8.34896 4.50505
LeftShoulder1  8.45155 -11.6445 -48.6985
LeftArm  -10.8499 29.2786 -31.2843
LeftForeArm  26.836 -12.229 -4.64734
LeftHand  -0.244104 0.0205437 5.32207
RightShoulder  5.88946 9.15273 40.3743
RightArm  13.786 3.17322 37.5698
RightForeArm  6.72606 39.1902 8.72119
RightHand  -0.515398 -1.37565 -14.8125
LeftUpLeg  -20.0557 6.35607 5.02691
LeftLeg  8.84129 3.86709 -1.04856
LeftFoot  -0.00142423 0.736329 -7.43382
LeftToes  -7.27628e-011 -1.6005e-012 -1.37987e-011
225
root  46.8642 38.7658 8.93615 -7.45094 -57.8949 9.81636
RightUpLeg  8.04484 15.0404 -1.59046
RightLeg  23.6952 6.84849 3.11066
RightFoot  -19.7302 -0.762648 -8.61606
RightToes  -4.65663e-010 0 -3.6325e-017
Spine  5.18035 1.77991 2.50448
Spine1  6.20941 3.44597 -6.40593
HEad  -13.0407 -7.43814 4.70473
LeftShoulder1  8.46115 -11.6187 -48.8371
LeftArm  -11.2003 29.3179 -30.8034
LeftForeArm  26.6961 -8.54664 -4.79927
LeftHand  -0.244104 0.0205437 5.32207
RightShoulder  5.89819 8.98511 41.027
RightArm  13.84 1.69196 37.0704
RightForeArm  4.92959 36.0078 7.87016
RightHand  -0.572538 -0.911764 -14.798
LeftUpLeg  -19.4817 7.64312 3.75008
LeftLeg  12.5394 4.26776 0.0513058
LeftFoot  2.53172 0.814365 -6.80004
LeftToes  -7.27628e-011 -1.6005e-012 -1.37987e-011
226
root  46.2078 38.6756 10.2075 -9.86652 -59.271 11.7518
RightUpLeg  6.44787 15.6827 -3.43622
RightLeg  31.0863 7.14559 4.43093
RightFoot  -16.7019 -0.300309 -3.52497
RightToes  -4.65663e-010 0 -3.6325e-017
Spine  5.84978 1.43496 -1.12729
Spine1  5.96068 2.33125 -3.98558
HEad  -12.971 -6.7627 5.21236
LeftShoulder1  8.66038 -11.9036 -49.0648
LeftArm  -10.2637 28.068 -29.8439
LeftForeArm  26.0702 -4.36038 -4.76825
LeftHand  -0.244104 0.0205437 5.32207
RightShoulder  6.02463 9.03049 41.8111
RightArm  12.8969 -0.74677 36.5843
RightForeArm  3.04521 32.226 6.93801
RightHand  -0.721419 -0.0355877 -15.6203
LeftUpLeg  -18.7973 9.95997 1.83204
LeftLeg  16.569 1.66244 0.491368
LeftFoot  2.37564 0.839187 -7.10924
LeftToes  -7.27628e-011 -1.6005e-012 -1.37987e-011
227
root  45.5664 38.7339 11.4349 -12.4185 -60.4924 14.0241
RightUpLeg  2.16018 14.9857 -5.81603
RightLeg  40.9001 6.96272 6.12799
RightFoot  -7.1629 -0.115931 1.37451
RightToes  -4.65663e-010 0 -3.6325e-017
Spine  6.02154 1.01323 -3.92315
Spine1  6.44223 1.38258 -2.36639
HEad  -13.2358 -6.06148 5.1881
LeftShoulder1  9.01365 -12.4455 -49.3358
LeftArm  -8.90455 25.7545 -28.3193
LeftForeArm  26.6097 -1.5904 -4.98507
LeftHand  -0.244104 0.0205437 5.32207
RightShoulder  6.17235 9.23604 42.1716
RightArm  12.6166 -3.38091 36.5575
RightForeArm  -0.817232 27.2743 5.85428
RightHand  -0.985524 1.27051 -17.2356
LeftUpLeg  -17.2559 12.0196 0.0723822
LeftLeg  18.9685 0.644926 0.592126
LeftFoot  -0.55793 0.699096 -7.34226
LeftToes  -7.27628e-011 -1.6005e-012 -1.37987e-011
228
root  44.9626 38.8789 12.5928 -14.3117 -62.0216 15.7793
RightUpLeg  -4.11651 13.6031 -7.65728
RightLeg  50.7044 4.64981 5.64195
RightFoot  6.10631 -0.576211 4.16674
RightToes  -4.65663e-010 0 -3.6325e-017
Spine  6.10018 0.594828 -5.35027
Spine1  6.86418 0.663542 -1.66734
HEad  -13.3017 -5.19228 3.80605
LeftShoulder1  9.28684 -12.88 -49.4859
LeftArm  -7.49091 23.0172 -26.5152
LeftForeArm  28.744 -1.11655 -5.39881
LeftHand  -0.244104 0.0205437 5.32207
RightShoulder  6.19601 9.35349 41.9297
RightArm  12.7778 -5.52191 36.6982
RightForeArm  -4.227 20.6922 5.6626
RightHand  -1.15992 2.10006 -18.0754
LeftUpLeg  -15.0836 12.8175 -1.08938
LeftLeg  19.6798 2.02285 1.07441
LeftFoot  -3.66437 0.451505 -6.37663
LeftToes  -7.27628e-011 -1.6005e-012 -1.37987e-011
229
root  44.352 39.0934 13.6695 -15.0796 -63.7166 16.1139
RightUpLeg  -10.2187 11.5192 -8.12905
RightLeg  58.2072 1.29891 1.79075
RightFoot  14.3468 -0.894847 4.39745
RightToes  -4.65663e-010 0 -3.6325e-017
Spine  6.75235 0.218786 -5.65931
Spine1  6.63566 -0.00515357 -0.974511
HEad  -12.9027 -4.65639 1.56179
LeftShoulder1  9.31298 -12.9421 -49.4376
LeftArm  -6.51385 19.9037 -24.7953
LeftForeArm  30.815 -1.85608 -5.78364
LeftHand  -0.244104 0.0205437 5.32207
RightShoulder  6.16553 9.35869 41.6905
RightArm  7.07213 -7.0906 35.7122
RightForeArm  2.74696 12.8311 8.28022
RightHand  -1.00865 1.49484 -17.0388
LeftUpLeg  -12.289 12.8655 -1.23998
LeftLeg  19.1489 3.70507 1.30469
LeftFoot  -5.22044 0.289523 -4.85859
LeftToes  -7.27628e-011 -1.6005e-012 -1.37987e-011
230
root  43.6844 39.4329 14.6994 -14.3472 -65.3265 14.6721
RightUpLeg  -15.0985 8.40256 -7.11871
RightLeg  62.4263 -1.18947 -2.96214
RightFoot  14.3675 -0.628632 3.16739
RightToes  -4.65663e-010 0 -3.6325e-017
Spine  7.5888 -0.171057 -4.89526
Spine1  6.27468 -0.598817 -0.00338793
HEad  -12.492 -4.5956 -0.184535
LeftShoulder1  9.13621 -12.7288 -49.1349
LeftArm  -6.49876 16.2713 -23.3688
LeftForeArm  30.375 -2.84592 -5.96618
LeftHand  -0.244104 0.0205437 5.32207
RightShoulder  6.219 9.39684 41.9447
RightArm  2.37047 -8.82416 33.6537
RightForeArm  13.5354 6.55683 9.11116
RightHand  -0.70057 0.0288223 -15.0316
LeftUpLeg  -8.54444 12.8572 -0.189276
LeftLeg  16.9972 4.91193 0.58822
LeftFoot  -5.81197 0.240729 -4.27569
LeftToes  -7.27628e-011 -1.6005e-012 -1.37987e-011
231
root  42.976 39.7388 15.6736 -12.9227 -66.849 12.8024
RightUpLeg  -19.1397 4.83188 -5.39563
RightLeg  62.8423 -2.23621 -5.28603
RightFoot  10.6945 -0.441114 2.66281
RightToes  -4.65663e-010 0 -3.6325e-017
Spine  8.02062 -0.517261 -3.80856
Spine1  6.23047 -1.00873 0.529722
HEad  -12.6435 -4.15294 -0.693143
LeftShoulder1  8.91268 -12.5062 -48.5967
LeftArm  -7.6728 12.6368 -22.1302
LeftForeArm  27.2359 -4.65204 -5.88489
LeftHand  -0.244104 0.0205437 5.32207
RightShoulder  6.2818 9.44598 42.2275
RightArm  1.62958 -11.3865 31.5556
RightForeArm  21.5546 3.85704 8.24686
RightHand  -0.509055 -1.03824 -13.5514
LeftUpLeg  -4.79653 12.0584 1.20269
LeftLeg  14.3581 7.11863 -0.645419
LeftFoot  -6.76566 0.219612 -4.47812
LeftToes  -7.27628e-011 -1.6005e-012 -1.37987e-011
232
root  42.2278 39.9319 16.619 -11.1918 -68.1815 10.94
RightUpLeg  -22.536 1.43201 -3.33026
RightLeg  59.6044 -2.54949 -5.19135
RightFoot  8.56538 -0.480004 3.06767
RightToes  -4.65663e-010 0 -3.6325e-017
Spine  8.27007 -0.905743 -2.80754
Spine1  6.02686 -1.41963 0.732827
HEad  -12.4321 -3.54894 -0.552788
LeftShoulder1  8.72667 -12.3637 -48.0039
LeftArm  -9.4355 9.62781 -20.8201
LeftForeArm  23.4932 -7.94612 -5.64831
LeftHand  -0.244104 0.0205437 5.32207
RightShoulder  6.15441 9.32064 41.7401
RightArm  0.514017 -14.821 30.0933
RightForeArm  25.4949 3.54612 7.47515
RightHand  -0.460005 -1.2844 -12.9296
LeftUpLeg  -1.58655 9.71265 2.13173
LeftLeg  11.97 10.8057 -1.76105
LeftFoot  -7.84471 0.176509 -4.23099
LeftToes  -7.27628e-011 -1.6005e-012 -1.37987e-011
